<svg xmlns="http://www.w3.org/2000/svg" width="19.243" height="16.173" viewBox="0 0 19.243 16.173">
  <path id="Arrow" d="M5.239,25.091a.669.669,0,0,1-.217-.035.7.7,0,0,1-.483-.7c0-.105.722-10.279,10.924-11.078V9.62a.7.7,0,0,1,1.2-.491l6.916,7.063a.7.7,0,0,1,0,.981l-6.916,7.063a.7.7,0,0,1-1.2-.491V20.158c-6.811.259-9.6,4.555-9.631,4.607a.7.7,0,0,1-.592.326ZM16.864,11.336v2.6a.7.7,0,0,1-.676.7c-6.6.242-8.962,4.639-9.81,7.466a14.493,14.493,0,0,1,9.743-3.363h.032a.7.7,0,0,1,.7.7v2.6l5.255-5.346Z" transform="translate(-4.538 -8.918)" fill="#e00707" opacity="0.8"/>
</svg>
