<svg xmlns="http://www.w3.org/2000/svg" width="21.804" height="18.896" viewBox="0 0 21.804 18.896">
  <path id="Path_105" data-name="Path 105" d="M6,18.362ZM17.81,8.027A5.4,5.4,0,0,0,13.95,9.616c-.227.113-.227.455-.113.683.227.226.567.226.679,0A4.549,4.549,0,0,1,17.81,8.933a.453.453,0,1,0,0-.906Zm2.044.227c-.227,0-.452.226-.567.567,0,.227.34.342.567.342a6.8,6.8,0,0,1,7.042,6.36.415.415,0,0,0,.455.452.486.486,0,0,0,.454-.452A7.824,7.824,0,0,0,19.97,8.254h-.116Zm1.276,3.4a4.873,4.873,0,0,0-.593.005,4.4,4.4,0,0,0-3.863,3.179v.113c-.113.455-.339,1.025-.452,1.365q-.408,1.209-.909,2.385a5.86,5.86,0,0,1-1.362,2.156,1.693,1.693,0,0,1-1.591.683,2.14,2.14,0,0,0-.909-.229,2.157,2.157,0,0,0-1.022.343,1.79,1.79,0,0,0-.34,2.5,1.825,1.825,0,0,0,1.249.57c0,.113-.113.112-.113.226a1.767,1.767,0,0,0,1.591,1.931,1.4,1.4,0,0,0,1.136-.226,1.652,1.652,0,0,0,.679-1.022,4.729,4.729,0,0,1,1.252-2.5A4.765,4.765,0,0,1,18.152,22c1.7-.455,3.521-.342,4.884-.91,2.044-.909,3.065-2.269,3.18-3.746a5.133,5.133,0,0,0-1.478-3.975,5.282,5.282,0,0,0-3.608-1.709Zm-5.7,9.2c.681.115,1.022,1.137-.34,1.592a5.56,5.56,0,0,0-1.478,3.064c0,.113-.112.228-.226.342a.852.852,0,0,1-.567.113c-.454,0-.683-.454-.683-.909a1.515,1.515,0,0,1,.34-.568c.342-.342-.226-1.021-.566-.681a.806.806,0,0,1-1.022-1.248c.113-.113.226-.113.454-.113a2.224,2.224,0,0,1,.8.113,2.793,2.793,0,0,0,2.385-.909c.34-.567.681-.8.907-.8Z" transform="translate(-6 -8.027)" fill="#fff"/>
</svg>
