<svg xmlns="http://www.w3.org/2000/svg" width="16.373" height="16.373" viewBox="0 0 16.373 16.373">
  <g id="Group_145" data-name="Group 145" transform="translate(0.1 0.1)" opacity="0.8">
    <path id="Path_102" data-name="Path 102" d="M13.478,13.478h-2.7a.674.674,0,0,1,0-1.348h2.7a1.352,1.352,0,0,0,1.348-1.348V2.7a1.352,1.352,0,0,0-1.348-1.348H2.7A1.352,1.352,0,0,0,1.348,2.7v8.087A1.352,1.352,0,0,0,2.7,12.13h2.7a.674.674,0,0,1,0,1.348H2.7a2.7,2.7,0,0,1-2.7-2.7V2.7A2.7,2.7,0,0,1,2.7,0H13.478a2.7,2.7,0,0,1,2.7,2.7v8.087A2.7,2.7,0,0,1,13.478,13.478Z" fill="#027a97" stroke="#027a97" stroke-width="0.2"/>
    <path id="Path_103" data-name="Path 103" d="M9.717,17.8a.612.612,0,0,1-.472-.2l-2.7-2.7a.667.667,0,0,1,.943-.943l2.224,2.224,2.224-2.224a.667.667,0,0,1,.943.943l-2.7,2.7a.612.612,0,0,1-.472.2ZM13.761,6.348H5.674A.637.637,0,0,1,5,5.674.637.637,0,0,1,5.674,5h8.087a.637.637,0,0,1,.674.674A.637.637,0,0,1,13.761,6.348Zm-3.369,2.7H5.674a.674.674,0,0,1,0-1.348h4.717a.674.674,0,0,1,0,1.348Zm2.022,2.7H5.674a.674.674,0,0,1,0-1.348h6.739a.674.674,0,0,1,0,1.348Z" transform="translate(-1.631 -1.631)" fill="#027a97" stroke="#027a97" stroke-width="0.2"/>
  </g>
</svg>
