<svg xmlns="http://www.w3.org/2000/svg" width="54" height="54" viewBox="0 0 54 54">
  <g id="Group_129" data-name="Group 129" transform="translate(-2 -2)">
    <path id="Path_78" data-name="Path 78" d="M16.794,30.012a2.691,2.691,0,0,1-1.909-.791L7.291,21.628a2.7,2.7,0,1,1,3.818-3.818l5.685,5.685,14.8-14.8a2.7,2.7,0,1,1,3.818,3.818L18.7,29.221A2.691,2.691,0,0,1,16.794,30.012Z" transform="translate(7.65 10.041)" fill="#ff5858" opacity="0.99"/>
    <path id="Path_79" data-name="Path 79" d="M29,2A27,27,0,1,0,56,29,27,27,0,0,0,29,2ZM43.059,22.556,26.353,39.262a2.7,2.7,0,0,1-3.818,0l-7.594-7.594a2.7,2.7,0,1,1,3.818-3.818l5.685,5.685,14.8-14.8a2.7,2.7,0,1,1,3.818,3.818Z" fill="#ffabab"/>
  </g>
</svg>
