<svg id="Group_181" data-name="Group 181" xmlns="http://www.w3.org/2000/svg" width="22.724" height="22.724" viewBox="0 0 22.724 22.724">
  <path id="Path_95" data-name="Path 95" d="M0,0H22.724V22.724H0Z" fill="none"/>
  <path id="Path_96" data-name="Path 96" d="M21.291,10.081,12.76,1.55a1.942,1.942,0,0,0-2.68,0L1.559,10.071a1.886,1.886,0,0,0,0,2.67l8.521,8.521a1.9,1.9,0,0,0,2.67,0l8.512-8.512A1.886,1.886,0,0,0,21.291,10.081Zm-9.866,9.847L2.9,11.406l8.521-8.521,8.521,8.521Zm-3.8-9.459v3.787H9.522v-2.84h3.787v2.367l3.314-3.314L13.309,7.155V9.522H8.575A.95.95,0,0,0,7.628,10.469Z" transform="translate(-0.053 -0.054)" fill="#fff"/>
</svg>
