<svg id="Group_309" data-name="Group 309" xmlns="http://www.w3.org/2000/svg" width="25.646" height="25.646" viewBox="0 0 25.646 25.646">
  <path id="Path_133" data-name="Path 133" d="M25.645,12.823A12.823,12.823,0,1,0,10.819,25.49v-8.96H7.563V12.823h3.256V10c0-3.214,1.914-4.989,4.843-4.989a19.718,19.718,0,0,1,2.87.25V8.415H16.916a1.853,1.853,0,0,0-2.09,2v2.405h3.556l-.569,3.707H14.826v8.96A12.826,12.826,0,0,0,25.645,12.823Z" fill="#1877f2"/>
  <path id="Path_134" data-name="Path 134" d="M312.251,211.52l.569-3.707h-3.556v-2.405a1.853,1.853,0,0,1,2.09-2h1.617V200.25a19.72,19.72,0,0,0-2.87-.25c-2.929,0-4.843,1.775-4.843,4.989v2.825H302v3.707h3.256v8.96a12.958,12.958,0,0,0,4.007,0v-8.96Z" transform="translate(-294.437 -194.991)" fill="#fff"/>
</svg>
