<svg id="Group_310" data-name="Group 310" xmlns="http://www.w3.org/2000/svg" width="23.073" height="23.073" viewBox="0 0 23.073 23.073">
  <path id="Path_118" data-name="Path 118" d="M5.114,145.98l-.8,3-2.936.062a11.557,11.557,0,0,1-.085-10.773h0l2.613.479,1.145,2.6a6.885,6.885,0,0,0,.065,4.636Z" transform="translate(0 -132.037)" fill="#fbbb00"/>
  <path id="Path_119" data-name="Path 119" d="M272.71,208.176a11.532,11.532,0,0,1-4.113,11.152h0l-3.292-.168-.466-2.908a6.875,6.875,0,0,0,2.958-3.511h-6.169v-4.564H272.71Z" transform="translate(-249.838 -198.794)" fill="#518ef8"/>
  <path id="Path_120" data-name="Path 120" d="M47.893,316h0a11.541,11.541,0,0,1-17.384-3.53l3.739-3.06a6.861,6.861,0,0,0,9.887,3.513Z" transform="translate(-29.134 -295.465)" fill="#28b446"/>
  <path id="Path_121" data-name="Path 121" d="M46.235,2.656,42.5,5.716A6.86,6.86,0,0,0,32.383,9.308L28.625,6.231h0A11.539,11.539,0,0,1,46.235,2.656Z" transform="translate(-27.334 0)" fill="#f14336"/>
</svg>
