<svg id="Group_131" data-name="Group 131" xmlns="http://www.w3.org/2000/svg" width="24.172" height="24.172" viewBox="0 0 24.172 24.172">
  <path id="Path_80" data-name="Path 80" d="M5.357,146.348l-.841,3.141-3.075.065a12.107,12.107,0,0,1-.089-11.286h0l2.738.5,1.2,2.721a7.213,7.213,0,0,0,.068,4.856Z" transform="translate(0 -131.74)" fill="#fbbb00"/>
  <path id="Path_81" data-name="Path 81" d="M273.237,208.176a12.081,12.081,0,0,1-4.308,11.683h0l-3.448-.176-.488-3.047a7.2,7.2,0,0,0,3.1-3.678h-6.463v-4.781h11.609Z" transform="translate(-249.276 -198.348)" fill="#518ef8"/>
  <path id="Path_82" data-name="Path 82" d="M48.72,316.312h0a12.09,12.09,0,0,1-18.212-3.7l3.917-3.206a7.188,7.188,0,0,0,10.358,3.68Z" transform="translate(-29.069 -294.802)" fill="#28b446"/>
  <path id="Path_83" data-name="Path 83" d="M47.073,2.782,43.158,5.988a7.187,7.187,0,0,0-10.6,3.763L28.625,6.528h0A12.088,12.088,0,0,1,47.073,2.782Z" transform="translate(-27.273)" fill="#f14336"/>
</svg>
