<svg xmlns="http://www.w3.org/2000/svg" width="16.172" height="16.173" viewBox="0 0 16.172 16.173">
  <path id="Path_101" data-name="Path 101" d="M17.607,8.534a2.426,2.426,0,0,0-1.86-.873H12.06L12.513,6.5A3.34,3.34,0,0,0,9.367,2a.809.809,0,0,0-.736.477l-2.3,5.184h-1.9A2.426,2.426,0,0,0,2,10.087v5.661a2.426,2.426,0,0,0,2.426,2.426H14.72a2.426,2.426,0,0,0,2.386-1.989l1.027-5.661A2.426,2.426,0,0,0,17.607,8.534ZM6.043,16.556H4.426a.809.809,0,0,1-.809-.809V10.087a.809.809,0,0,1,.809-.809H6.043Zm10.513-6.324-1.027,5.661a.809.809,0,0,1-.809.663H7.661V8.639L9.86,3.69a1.706,1.706,0,0,1,1.116,2.248l-.429,1.156A1.617,1.617,0,0,0,12.06,9.278h3.688a.825.825,0,0,1,.809.954Z" transform="translate(-2 -2)" fill="#333" opacity="0.8"/>
</svg>
