<svg xmlns="http://www.w3.org/2000/svg" width="52.977" height="45.752" viewBox="0 0 52.977 45.752">
  <g id="Layer_2" data-name="Layer 2" transform="translate(-1 -1)">
    <path id="Path_75" data-name="Path 75" d="M38.712,22.672H5V17.856a16.856,16.856,0,0,1,33.712,0Zm-28.9-4.816H33.9a12.04,12.04,0,1,0-24.08,0Z" transform="translate(5.632 0)" fill="#ff5858" opacity="0.5"/>
    <path id="Path_76" data-name="Path 76" d="M44.344,36.9H10.632A9.632,9.632,0,0,1,1,27.264V17.632A9.632,9.632,0,0,1,10.632,8H44.344a9.632,9.632,0,0,1,9.632,9.632v9.632A9.632,9.632,0,0,1,44.344,36.9ZM10.632,12.816a4.816,4.816,0,0,0-4.816,4.816v9.632a4.816,4.816,0,0,0,4.816,4.816H44.344a4.816,4.816,0,0,0,4.816-4.816V17.632a4.816,4.816,0,0,0-4.816-4.816Z" transform="translate(0 9.856)" fill="#ff5858"/>
    <path id="Path_77" data-name="Path 77" d="M42.936,9H9.224A7.224,7.224,0,0,0,2,16.224v9.632A7.224,7.224,0,0,0,9.224,33.08H42.936a7.224,7.224,0,0,0,7.224-7.224V16.224A7.224,7.224,0,0,0,42.936,9Zm-31.3,14.448A2.408,2.408,0,1,1,14.04,21.04,2.408,2.408,0,0,1,11.632,23.448Zm9.632,0a2.408,2.408,0,1,1,2.408-2.408A2.408,2.408,0,0,1,21.264,23.448Zm9.632,0A2.408,2.408,0,1,1,33.3,21.04,2.408,2.408,0,0,1,30.9,23.448Zm9.632,0a2.408,2.408,0,1,1,2.408-2.408A2.408,2.408,0,0,1,40.528,23.448Z" transform="translate(1.408 11.264)" fill="#ff5858"/>
  </g>
</svg>
