<svg xmlns="http://www.w3.org/2000/svg" width="9.23" height="16.41" viewBox="0 0 9.23 16.41">
  <g id="Page-1" transform="translate(0.3 0.359)">
    <g id="Dribbble-Light-Preview" transform="translate(0 0)">
      <g id="icons">
        <path id="arrow_left-_335_" data-name="arrow_left-[#335]" d="M297.343,6519.227a.833.833,0,0,0-1.149,0l-6.718,6.483a1.528,1.528,0,0,0,0,2.217l6.767,6.531a.834.834,0,0,0,1.141.008.765.765,0,0,0,.008-1.118l-6.192-5.976a.765.765,0,0,1,0-1.109l6.143-5.929a.763.763,0,0,0,0-1.107" transform="translate(-289 -6518.998)" stroke="#000" stroke-width="0.6" fill-rule="evenodd"/>
      </g>
    </g>
  </g>
</svg>
