<svg xmlns="http://www.w3.org/2000/svg" width="19.234" height="25.646" viewBox="0 0 19.234 25.646">
  <g id="Icons" transform="translate(0 0)">
    <g id="Color-" transform="translate(0 0)">
      <path id="Yelp" d="M306.49,772.347a9.348,9.348,0,0,0-.441,4.165,3.358,3.358,0,0,0,.251,1.074.887.887,0,0,0,.754.516c.2.011.326-.024,4.116-1.262,0,0,1.684-.545,1.691-.549a1.034,1.034,0,0,0,.73-1,1.112,1.112,0,0,0-.665-1.131s-1.186-.492-1.189-.492c-4.071-1.706-4.254-1.774-4.46-1.776A.878.878,0,0,0,306.49,772.347ZM315.6,785.06c.066-.193.074-.327.085-4.372,0,0,.01-1.786.011-1.806a1.04,1.04,0,0,0-.709-1.015,1.082,1.082,0,0,0-1.26.291s-.83,1-.833,1c-2.854,3.4-2.971,3.56-3.041,3.762a.821.821,0,0,0-.044.371.988.988,0,0,0,.23.524,8.8,8.8,0,0,0,4.846,1.811A.9.9,0,0,0,315.6,785.06Zm6.434-1.407a8.912,8.912,0,0,0,3.19-4.122.912.912,0,0,0-.305-.87c-.16-.123-.284-.171-4.07-1.433,0,0-1.661-.558-1.682-.568a1.017,1.017,0,0,0-1.169.376,1.12,1.12,0,0,0-.114,1.315l.669,1.1c2.249,3.71,2.42,3.972,2.582,4.1A.858.858,0,0,0,322.032,783.653Zm-1.955-9.548c4.3-1.059,4.469-1.116,4.64-1.229a.9.9,0,0,0,.369-.84.292.292,0,0,0,0-.037,9.068,9.068,0,0,0-2.874-4.319.877.877,0,0,0-.914.035c-.166.11-.29.276-2.593,3.477,0,0-1.042,1.442-1.054,1.455a1.048,1.048,0,0,0-.011,1.242,1.079,1.079,0,0,0,1.177.52s-.018.031-.023.037A12.725,12.725,0,0,1,320.077,774.1Zm-4.321-3.61c-.074-1.732-.586-9.448-.646-9.806a.916.916,0,0,0-.7-.647c-1.1-.278-5.3.919-6.074,1.735a.944.944,0,0,0-.267.879c.121.257,5.325,8.572,5.325,8.572.77,1.267,1.4,1.071,1.6,1.006S315.827,771.971,315.755,770.494Z" transform="translate(-306 -760)" fill="#d32200" fill-rule="evenodd"/>
    </g>
  </g>
</svg>
