<svg id="Group_264" data-name="Group 264" xmlns="http://www.w3.org/2000/svg" width="70.418" height="11.827" viewBox="0 0 70.418 11.827">
  <path id="Path_122" data-name="Path 122" d="M-57.867,52.857c-.442.315-3.277-1.68-3.82-1.684s-3.41,1.945-3.846,1.623.59-3.627.426-4.143-2.908-2.633-2.736-3.146,3.641-.561,4.083-.876,1.612-3.572,2.155-3.567,1.66,3.28,2.1,3.6,3.9.425,4.068.941-2.615,2.588-2.787,3.1S-57.425,52.543-57.867,52.857Z" transform="translate(67.851 -41.064)" fill="#ff5858"/>
  <path id="Path_123" data-name="Path 123" d="M-57.867,52.857c-.442.315-3.277-1.68-3.82-1.684s-3.41,1.945-3.846,1.623.59-3.627.426-4.143-2.908-2.633-2.736-3.146,3.641-.561,4.083-.876,1.612-3.572,2.155-3.567,1.66,3.28,2.1,3.6,3.9.425,4.068.941-2.615,2.588-2.787,3.1S-57.425,52.543-57.867,52.857Z" transform="translate(82.851 -41.064)" fill="#ff5858"/>
  <path id="Path_124" data-name="Path 124" d="M-57.867,52.857c-.442.315-3.277-1.68-3.82-1.684s-3.41,1.945-3.846,1.623.59-3.627.426-4.143-2.908-2.633-2.736-3.146,3.641-.561,4.083-.876,1.612-3.572,2.155-3.567,1.66,3.28,2.1,3.6,3.9.425,4.068.941-2.615,2.588-2.787,3.1S-57.425,52.543-57.867,52.857Z" transform="translate(96.851 -41.064)" fill="#ff5858"/>
  <path id="Path_125" data-name="Path 125" d="M-57.867,52.857c-.442.315-3.277-1.68-3.82-1.684s-3.41,1.945-3.846,1.623.59-3.627.426-4.143-2.908-2.633-2.736-3.146,3.641-.561,4.083-.876,1.612-3.572,2.155-3.567,1.66,3.28,2.1,3.6,3.9.425,4.068.941-2.615,2.588-2.787,3.1S-57.425,52.543-57.867,52.857Z" transform="translate(111.851 -41.064)" fill="#ff5858"/>
  <path id="Path_126" data-name="Path 126" d="M-57.867,52.857c-.442.315-3.277-1.68-3.82-1.684s-3.41,1.945-3.846,1.623.59-3.627.426-4.143-2.908-2.633-2.736-3.146,3.641-.561,4.083-.876,1.612-3.572,2.155-3.567,1.66,3.28,2.1,3.6,3.9.425,4.068.941-2.615,2.588-2.787,3.1S-57.425,52.543-57.867,52.857Z" transform="translate(125.851 -41.064)" fill="#ff5858" opacity="0.3"/>
</svg>
