<svg xmlns="http://www.w3.org/2000/svg" width="28" height="28" viewBox="0 0 28 28">
  <g id="Layer_2" data-name="Layer 2" transform="translate(0 0)">
    <g id="search" transform="translate(0 0)">
      <rect id="Rectangle_134" data-name="Rectangle 134" width="28" height="28" fill="#cfcfcf" opacity="0"/>
      <path id="Path_100" data-name="Path 100" d="M23.214,21.594l-3.881-3.869a9.04,9.04,0,0,0,1.929-5.593,9.131,9.131,0,1,0-9.131,9.131,9.04,9.04,0,0,0,5.593-1.929l3.869,3.881a1.146,1.146,0,1,0,1.621-1.621ZM5.283,12.131a6.848,6.848,0,1,1,6.848,6.848,6.848,6.848,0,0,1-6.848-6.848Z" transform="translate(0.727 0.728)" fill="#ffffff"/>
    </g>
  </g>
</svg>
