<svg xmlns="http://www.w3.org/2000/svg" width="97.861" height="15.106" viewBox="0 0 97.861 15.106">
  <g id="Group_197" data-name="Group 197" transform="translate(-358 -1229.696)">
    <path id="Path_4" data-name="Path 4" d="M-55.1,56.127c-.564.4-4.185-2.146-4.878-2.151s-4.355,2.484-4.913,2.073.753-4.632.545-5.291-3.715-3.362-3.495-4.018,4.651-.717,5.215-1.119,2.059-4.562,2.753-4.556,2.121,4.189,2.678,4.6,4.987.543,5.2,1.2-3.34,3.306-3.56,3.962S-54.535,55.725-55.1,56.127Z" transform="translate(425.851 1188.633)" fill="#ff5858"/>
    <path id="Path_4-2" data-name="Path 4" d="M-55.1,56.127c-.564.4-4.185-2.146-4.878-2.151s-4.355,2.484-4.913,2.073.753-4.632.545-5.291-3.715-3.362-3.495-4.018,4.651-.717,5.215-1.119,2.059-4.562,2.753-4.556,2.121,4.189,2.678,4.6,4.987.543,5.2,1.2-3.34,3.306-3.56,3.962S-54.535,55.725-55.1,56.127Z" transform="translate(446.851 1188.633)" fill="#ff5858"/>
    <path id="Path_4-3" data-name="Path 4" d="M-55.1,56.127c-.564.4-4.185-2.146-4.878-2.151s-4.355,2.484-4.913,2.073.753-4.632.545-5.291-3.715-3.362-3.495-4.018,4.651-.717,5.215-1.119,2.059-4.562,2.753-4.556,2.121,4.189,2.678,4.6,4.987.543,5.2,1.2-3.34,3.306-3.56,3.962S-54.535,55.725-55.1,56.127Z" transform="translate(466.851 1188.633)" fill="#ff5858"/>
    <path id="Path_4-4" data-name="Path 4" d="M-55.1,56.127c-.564.4-4.185-2.146-4.878-2.151s-4.355,2.484-4.913,2.073.753-4.632.545-5.291-3.715-3.362-3.495-4.018,4.651-.717,5.215-1.119,2.059-4.562,2.753-4.556,2.121,4.189,2.678,4.6,4.987.543,5.2,1.2-3.34,3.306-3.56,3.962S-54.535,55.725-55.1,56.127Z" transform="translate(486.851 1188.633)" fill="#ff5858"/>
    <path id="Path_4-5" data-name="Path 4" d="M-55.1,56.127c-.564.4-4.185-2.146-4.878-2.151s-4.355,2.484-4.913,2.073.753-4.632.545-5.291-3.715-3.362-3.495-4.018,4.651-.717,5.215-1.119,2.059-4.562,2.753-4.556,2.121,4.189,2.678,4.6,4.987.543,5.2,1.2-3.34,3.306-3.56,3.962S-54.535,55.725-55.1,56.127Z" transform="translate(507.851 1188.633)" fill="#ff5858" opacity="0.3"/>
  </g>
</svg>
