<svg xmlns="http://www.w3.org/2000/svg" width="20.597" height="20.597" viewBox="0 0 20.597 20.597">
  <g id="Group_113" data-name="Group 113" transform="translate(-2.75 -2.75)">
    <path id="Path_72" data-name="Path 72" d="M13.049,23.1A10.049,10.049,0,1,1,23.1,13.049,10.049,10.049,0,0,1,13.049,23.1Zm0-18.423a8.374,8.374,0,1,0,8.374,8.374A8.374,8.374,0,0,0,13.049,4.675Z" fill="#468ac5" stroke="#468ac5" stroke-width="0.5"/>
    <path id="Path_73" data-name="Path 73" d="M19.024,18.63a.837.837,0,0,1-.561-.218l-4.187-3.768a.837.837,0,0,1-.276-.62V9.837a.837.837,0,0,1,1.675,0v3.81l3.911,3.517a.837.837,0,0,1-.561,1.465Z" transform="translate(-1.789 -0.976)" fill="#468ac5" stroke="#468ac5" stroke-width="0.5"/>
  </g>
</svg>
