<svg id="Group_153" data-name="Group 153" xmlns="http://www.w3.org/2000/svg" width="16.724" height="16.655" viewBox="0 0 16.724 16.655">
  <path id="Path_85" data-name="Path 85" d="M18.185.029A.38.38,0,0,0,17.8.063a8.909,8.909,0,0,1-3.955,1.8,2.14,2.14,0,0,1-.624.069,7.7,7.7,0,0,0-.971.1A14.861,14.861,0,0,0,7.431,3.116,7.984,7.984,0,0,0,4.239,6.03c-1.214,2.012-1.7,5.2-.278,7.32.035.035.035.069.069.1.416-.52.8-1.041,1.18-1.561.243-.347.451-.624.624-.9V7.279a.347.347,0,0,1,.694,0V10.02a4.567,4.567,0,0,1,1.18-1.284,5.3,5.3,0,0,1,.9-.555V5.892a.348.348,0,0,1,.347-.347.373.373,0,0,1,.347.347V7.869a6.474,6.474,0,0,1,.763-.243,8.031,8.031,0,0,0,1.284-.451l-.659-2.6a.341.341,0,0,1,.659-.173l.59,2.394c.069-.069.173-.1.243-.173A6.849,6.849,0,0,0,14.161,4.3a.357.357,0,0,1,.624.347A7.388,7.388,0,0,1,12.947,6.9h2.22a.348.348,0,0,1,.347.347.373.373,0,0,1-.347.347H11.976a9.488,9.488,0,0,1-1.735.694h0l2.29.729a.377.377,0,0,1,.243.416.345.345,0,0,1-.347.243h-.1L9.131,8.667h0A.034.034,0,0,0,9.1,8.7a4.278,4.278,0,0,0-.971.59,4.758,4.758,0,0,0-1.284,1.526c-.035.035-.069.1-.1.139L9.79,12.171a.361.361,0,0,1,.208.451c0,.139-.139.208-.278.208a.209.209,0,0,1-.139-.035L6.39,11.512c-.173.243-.347.486-.59.8-.416.555-.867,1.145-1.318,1.7.139.1.208.208.312.278.243.208.416.312.451.347a4.819,4.819,0,0,0,2.5.659,10.862,10.862,0,0,0,1.873-.208,9.961,9.961,0,0,0,4.2-2.012,12.067,12.067,0,0,0,3.5-5.759A19.3,19.3,0,0,0,18.463.376.572.572,0,0,0,18.185.029Z" transform="translate(-1.741 0.009)" fill="#fff"/>
  <path id="Path_86" data-name="Path 86" d="M-.7,41.467a.335.335,0,0,0,0,.486.315.315,0,0,0,.243.1.315.315,0,0,0,.243-.1q1.145-1.249,2.186-2.5a3.893,3.893,0,0,1-.451-.555C.831,39.767.067,40.635-.7,41.467Z" transform="translate(0.8 -25.402)" fill="#fff"/>
</svg>
