<svg xmlns="http://www.w3.org/2000/svg" width="84.311" height="13.015" viewBox="0 0 84.311 13.015">
  <g id="Group_284" data-name="Group 284" transform="translate(-1087 -1373.001)">
    <path id="Path_4" data-name="Path 4" d="M-56.865,54.041c-.486.346-3.606-1.849-4.2-1.854s-3.752,2.14-4.232,1.786.649-3.991.469-4.559-3.2-2.9-3.011-3.462,4.007-.618,4.493-.964,1.774-3.93,2.372-3.925,1.827,3.609,2.308,3.963,4.3.468,4.477,1.036-2.877,2.848-3.067,3.413S-56.379,53.695-56.865,54.041Z" transform="translate(1154.851 1331.938)" fill="#fda333"/>
    <path id="Path_4-2" data-name="Path 4" d="M-56.865,54.041c-.486.346-3.606-1.849-4.2-1.854s-3.752,2.14-4.232,1.786.649-3.991.469-4.559-3.2-2.9-3.011-3.462,4.007-.618,4.493-.964,1.774-3.93,2.372-3.925,1.827,3.609,2.308,3.963,4.3.468,4.477,1.036-2.877,2.848-3.067,3.413S-56.379,53.695-56.865,54.041Z" transform="translate(1172.943 1331.938)" fill="#fda333"/>
    <path id="Path_4-3" data-name="Path 4" d="M-56.865,54.041c-.486.346-3.606-1.849-4.2-1.854s-3.752,2.14-4.232,1.786.649-3.991.469-4.559-3.2-2.9-3.011-3.462,4.007-.618,4.493-.964,1.774-3.93,2.372-3.925,1.827,3.609,2.308,3.963,4.3.468,4.477,1.036-2.877,2.848-3.067,3.413S-56.379,53.695-56.865,54.041Z" transform="translate(1190.174 1331.938)" fill="#fda333"/>
    <path id="Path_4-4" data-name="Path 4" d="M-56.865,54.041c-.486.346-3.606-1.849-4.2-1.854s-3.752,2.14-4.232,1.786.649-3.991.469-4.559-3.2-2.9-3.011-3.462,4.007-.618,4.493-.964,1.774-3.93,2.372-3.925,1.827,3.609,2.308,3.963,4.3.468,4.477,1.036-2.877,2.848-3.067,3.413S-56.379,53.695-56.865,54.041Z" transform="translate(1207.405 1331.938)" fill="#fda333"/>
    <path id="Path_4-5" data-name="Path 4" d="M-56.865,54.041c-.486.346-3.606-1.849-4.2-1.854s-3.752,2.14-4.232,1.786.649-3.991.469-4.559-3.2-2.9-3.011-3.462,4.007-.618,4.493-.964,1.774-3.93,2.372-3.925,1.827,3.609,2.308,3.963,4.3.468,4.477,1.036-2.877,2.848-3.067,3.413S-56.379,53.695-56.865,54.041Z" transform="translate(1225.497 1331.938)" fill="#fda333" opacity="0.3"/>
  </g>
</svg>
