<svg id="Group_6553" data-name="Group 6553" xmlns="http://www.w3.org/2000/svg" width="20.549" height="20.549" viewBox="0 0 20.549 20.549">
  <path id="Path_42623" data-name="Path 42623" d="M0,0H20.549V20.549H0Z" fill="none"/>
  <path id="Path_42624" data-name="Path 42624" d="M16.7,8.85h.856a.856.856,0,0,1,.856.856v8.562a.856.856,0,0,1-.856.856H3.856A.856.856,0,0,1,3,18.268V9.706a.856.856,0,0,1,.856-.856h.856V7.993a5.993,5.993,0,0,1,11.987,0ZM4.712,10.562v6.85H16.7v-6.85ZM9.85,12.274h1.712V15.7H9.85ZM14.987,8.85V7.993a4.281,4.281,0,0,0-8.562,0V8.85Z" transform="translate(0 -0.288)" fill="#aaaaac"/>
</svg>
